<?xml version="1.0" standalone="no"?>
<!DOCTYPE svg PUBLIC "-//W3C//DTD SVG 20010904//EN"
 "http://www.w3.org/TR/2001/REC-SVG-20010904/DTD/svg10.dtd">
<svg version="1.0" xmlns="http://www.w3.org/2000/svg"
 width="500.000000pt" height="500.000000pt" viewBox="0 0 500.000000 500.000000"
 preserveAspectRatio="xMidYMid meet">

<g transform="translate(0.000000,500.000000) scale(0.100000,-0.100000)"
fill="#000000" stroke="none">
<path d="M2320 4689 c-190 -142 -199 -149 -184 -149 5 0 88 58 184 130 124 92
183 130 202 130 20 0 77 -37 202 -130 96 -71 180 -130 187 -130 7 0 -72 63
-175 140 -133 98 -196 140 -215 140 -17 -1 -83 -44 -201 -131z"/>
<path d="M1318 4532 l-787 -2 -20 -26 c-21 -26 -21 -36 -21 -600 l0 -574 -134
-100 c-74 -54 -140 -108 -145 -119 -8 -14 -11 -461 -11 -1451 l0 -1431 25 -24
24 -25 2266 0 c1704 0 2272 3 2288 12 12 6 27 18 34 27 10 12 12 337 12 1446
1 1340 -1 1431 -17 1451 -22 28 -262 207 -268 201 -6 -5 35 -38 158 -129 47
-35 87 -66 89 -70 3 -6 -244 -168 -257 -168 -2 0 -4 346 -4 768 0 648 -2 771
-14 788 -14 19 -41 19 -1223 24 -664 3 -1562 4 -1995 2z m3202 -32 c20 -20 20
-31 18 -792 l-3 -773 -1000 -627 c-550 -345 -1005 -626 -1011 -625 -6 1 -462
283 -1013 626 l-1001 624 0 778 0 778 22 15 c20 14 226 16 1995 16 1962 0
1973 0 1993 -20z m-4033 -1547 c-7 -6 -256 151 -254 160 2 5 59 51 127 102
l125 94 3 -176 c1 -97 1 -178 -1 -180z m915 -598 l1107 -689 -27 -16 c-15 -9
-528 -330 -1139 -713 -612 -384 -1115 -697 -1118 -697 -3 0 -5 642 -5 1426 l0
1425 38 -23 c21 -13 536 -333 1144 -713z m3428 -685 c0 -781 -3 -1420 -6
-1420 -4 0 -517 318 -1141 706 -693 432 -1130 711 -1125 716 14 14 2256 1417
2265 1418 4 0 7 -639 7 -1420z m-1148 -735 c903 -563 1135 -711 1127 -722 -10
-11 -411 -13 -2290 -13 -1350 0 -2280 4 -2283 9 -8 12 2275 1442 2294 1438 8
-2 527 -323 1152 -712z"/>
<path d="M1016 3998 c-21 -30 -20 -50 5 -82 l20 -26 1045 0 c1031 0 1044 0
1064 20 24 24 26 57 4 88 l-15 22 -1054 0 -1054 0 -15 -22z"/>
<path d="M3347 4002 c-15 -17 -17 -60 -17 -410 l0 -391 26 -20 c26 -20 38 -21
326 -21 295 0 330 3 350 34 4 6 8 187 8 402 0 366 -1 392 -18 407 -17 15 -55
17 -339 17 -297 0 -321 -1 -336 -18z m563 -407 l0 -295 -225 0 -225 0 0 295 0
295 225 0 225 0 0 -295z"/>
<path d="M1021 3634 c-26 -33 -27 -58 -1 -84 20 -20 33 -20 595 -20 562 0 575
0 595 20 11 11 20 31 20 45 0 14 -9 34 -20 45 -20 20 -33 20 -594 20 l-575 0
-20 -26z"/>
<path d="M2405 3635 c-14 -13 -25 -29 -25 -35 0 -16 21 -53 34 -62 6 -4 172
-8 368 -8 l357 0 15 22 c22 31 20 64 -4 88 -19 19 -33 20 -370 20 l-351 0 -24
-25z"/>
<path d="M1043 3290 c-46 -19 -55 -69 -18 -105 l24 -25 740 0 c544 0 747 3
766 12 46 21 46 95 0 116 -31 14 -1477 16 -1512 2z"/>
<path d="M2782 3288 c-43 -21 -42 -96 3 -116 16 -8 83 -12 179 -12 140 0 156
2 180 21 17 13 26 30 26 49 0 19 -9 36 -26 49 -25 19 -39 21 -183 20 -91 0
-165 -5 -179 -11z"/>
<path d="M1135 2765 c-30 -29 -32 -55 -6 -86 l19 -24 1037 0 1037 0 19 24 c26
31 24 57 -6 86 l-24 25 -1026 0 -1026 0 -24 -25z"/>
<path d="M3475 2766 c-30 -30 -32 -56 -6 -87 19 -24 20 -24 270 -27 l251 -3
25 25 c30 30 32 56 6 87 -19 24 -20 24 -270 27 l-251 3 -25 -25z"/>
<path d="M1756 2479 c-17 -13 -26 -30 -26 -49 0 -19 9 -36 26 -49 26 -20 37
-21 439 -21 402 0 413 1 439 21 35 28 35 70 0 98 -26 20 -37 21 -439 21 -402
0 -413 -1 -439 -21z"/>
<path d="M2870 2493 c-55 -21 -67 -78 -23 -113 26 -20 36 -21 230 -18 224 3
236 7 236 68 0 61 -12 65 -231 67 -108 1 -204 -1 -212 -4z"/>
<path d="M2117 2118 c-9 -7 -19 -25 -22 -40 -5 -21 -1 -33 19 -52 25 -26 26
-26 194 -26 180 0 187 2 205 53 7 19 -8 56 -27 69 -20 14 -350 9 -369 -4z"/>
<path d="M2620 2110 c-27 -27 -25 -62 3 -88 21 -19 34 -22 120 -22 84 0 100 3
117 20 11 11 20 31 20 45 0 14 -9 34 -20 45 -17 17 -33 20 -120 20 -87 0 -103
-3 -120 -20z"/>
</g>
</svg>
